# xmcd
#
# Track frame offsets:
#	150
#	16287
#	18425
#	38025
#	56365
#	58165
#	75322
#	76490
#
# Disc length: 1255 seconds
# Revision: 0
# Processed by: cddbd v1.5.2PL0 Copyright (c) Steve Scherf et al.
# Submitted via: dBpowerAMP V12.0
#
DISCID=5304e508
DTITLE=Time To Change - Innovations
DYEAR=2003
DGENRE=Synthpop
TTITLE0=Image (Believe In Yourself)
TTITLE1=Rainy Morning
TTITLE2=Silent Scream
TTITLE3=The Leader
TTITLE4=Quiet Before The Storm
TTITLE5=Yearning
TTITLE6=Voice Of A Strange Woman
TTITLE7=Call Me
EXTD=
EXTT0=
EXTT1=
EXTT2=
EXTT3=
EXTT4=
EXTT5=
EXTT6=
EXTT7=
PLAYORDER=
